<svg width="256" height="256" viewBox="0 0 256 256" fill="none" xmlns="http://www.w3.org/2000/svg">
<g clip-path="url(#clip0_242_23)">
<path d="M196 0H60C26.8629 0 0 26.8629 0 60V196C0 229.137 26.8629 256 60 256H196C229.137 256 256 229.137 256 196V60C256 26.8629 229.137 0 196 0Z" fill="#F4F2ED"/>
<path d="M41.636 203.039H73.454V125.766L28 91.676V189.403C28 196.948 34.114 203.039 41.636 203.039Z" fill="#4285F4"/>
<path d="M182.545 203.039H214.364C221.909 203.039 228 196.925 228 189.403V91.675L182.545 125.766" fill="#34A853"/>
<path d="M182.545 66.675V125.766L228 91.676V73.492C228 56.629 208.75 47.015 195.273 57.129" fill="#FBBC04"/>
<path d="M73.4551 125.766V66.6761L128 107.583L182.545 66.6741V125.765L128 166.675" fill="#EA4335"/>
<path d="M28 73.493V91.675L73.454 125.766V66.676L60.727 57.13C47.227 47.016 28 56.63 28 73.493Z" fill="#C5221F"/>
</g>
<defs>
<clipPath id="clip0_242_23">
<rect width="256" height="256" fill="white"/>
</clipPath>
</defs>
</svg>
