<svg width="25" height="25" viewBox="0 0 25 25" fill="none" xmlns="http://www.w3.org/2000/svg">
<path d="M5.19079 7.50267C6.44954 7.50267 7.46995 6.48225 7.46995 5.2235C7.46995 3.96475 6.44954 2.94434 5.19079 2.94434C3.93204 2.94434 2.91162 3.96475 2.91162 5.2235C2.91162 6.48225 3.93204 7.50267 5.19079 7.50267Z" fill="white"/>
<path d="M9.62204 9.22974V21.8745H13.5481V15.6214C13.5481 13.9714 13.8585 12.3735 15.9043 12.3735C17.922 12.3735 17.947 14.2599 17.947 15.7256V21.8756H21.8752V14.9412C21.8752 11.5349 21.1418 8.91724 17.1606 8.91724C15.2491 8.91724 13.9679 9.96619 13.4439 10.9589H13.3908V9.22974H9.62204ZM3.22412 9.22974H7.15641V21.8745H3.22412V9.22974Z" fill="white"/>
</svg>
