<svg width="35" height="52" viewBox="0 0 35 52" fill="none" xmlns="http://www.w3.org/2000/svg">
<g clip-path="url(#clip0_166_136)">
<path d="M8.66663 52.0017C13.4506 52.0017 17.3333 48.1191 17.3333 43.3351V34.6685H8.66663C3.88265 34.6685 0 38.5511 0 43.3351C0 48.1191 3.88265 52.0017 8.66663 52.0017Z" fill="#0ACF83"/>
<path d="M0 26.0021C0 21.2181 3.88265 17.3354 8.66663 17.3354H17.3333V34.6687H8.66663C3.88265 34.6687 0 30.7861 0 26.0021Z" fill="#A259FF"/>
<path d="M0 8.66859C0 3.88461 3.88265 0.00195312 8.66663 0.00195312H17.3333V17.3352H8.66663C3.88265 17.3352 0 13.4526 0 8.66859Z" fill="#F24E1E"/>
<path d="M17.333 0.00195312H25.9996C30.7836 0.00195312 34.6663 3.88461 34.6663 8.66859C34.6663 13.4526 30.7836 17.3352 25.9996 17.3352H17.333V0.00195312Z" fill="#FF7262"/>
<path d="M34.6663 26.0021C34.6663 30.7861 30.7836 34.6687 25.9996 34.6687C21.2157 34.6687 17.333 30.7861 17.333 26.0021C17.333 21.2181 21.2157 17.3354 25.9996 17.3354C30.7836 17.3354 34.6663 21.2181 34.6663 26.0021Z" fill="#1ABCFE"/>
</g>
<defs>
<clipPath id="clip0_166_136">
<rect width="34.6665" height="52" fill="white" transform="translate(0 0.00195312)"/>
</clipPath>
</defs>
</svg>
